<?xml version="1.0" encoding="UTF-8" standalone="no"?>
<!DOCTYPE svg PUBLIC "-//W3C//DTD SVG 1.1//EN" "http://www.w3.org/Graphics/SVG/1.1/DTD/svg11.dtd"><svg width="100%" height="100%" viewBox="0 0 284 284" version="1.1" xmlns="http://www.w3.org/2000/svg" xmlns:xlink="http://www.w3.org/1999/xlink" xml:space="preserve" xmlns:serif="http://www.serif.com/" style="fill-rule:evenodd;clip-rule:evenodd;stroke-linejoin:round;stroke-miterlimit:1.41421;">
    <path id="layer101" d="M147.537,283.021c-7.239,-0.55 -7.453,-0.58 -11.912,-2.016c-5.651,-1.771 -6.048,-1.924 -7.27,-2.749c-0.549,-0.366 -1.649,-0.885 -2.443,-1.16c-0.794,-0.275 -2.077,-0.978 -2.871,-1.558c-1.65,-1.222 -13.959,-13.409 -14.875,-14.722c-6.964,-9.988 -9.468,-13.134 -14.294,-17.838c-2.291,-2.26 -7.209,-8.979 -10.294,-12.675c-1.13,-1.344 -2.779,-3.818 -3.665,-5.498c-0.916,-1.68 -2.229,-3.818 -2.962,-4.734c-1.772,-2.26 -4.338,-6.109 -5.834,-8.705c-0.672,-1.191 -2.016,-3.024 -3.024,-4.062l-1.772,-1.955l-3.054,-0.703c-1.68,-0.366 -5.253,-0.855 -7.941,-1.038c-2.688,-0.214 -5.376,-0.489 -5.956,-0.642c-0.581,-0.152 -1.711,-0.427 -2.505,-0.641c-0.794,-0.183 -1.68,-0.611 -1.955,-0.916c-0.275,-0.336 -0.702,-0.581 -0.947,-0.581c-0.58,0 -4.306,-3.848 -5.589,-5.772c-0.58,-0.886 -1.436,-2.047 -1.924,-2.627c-0.458,-0.55 -1.466,-2.321 -2.23,-3.94c-0.764,-1.588 -1.497,-2.993 -1.619,-3.055c-0.122,-0.091 -0.488,-0.824 -0.794,-1.618c-0.275,-0.795 -1.13,-2.688 -1.832,-4.215c-0.848,-3.562 -2.178,-4.831 -1.947,-7.688c0.15,-1.863 -1.778,-4.71 -2.543,-5.599c-2.931,-4.165 -1.878,-26.551 0.61,-27.978c0.459,-0.886 2.016,-1.985 4.032,-2.871c1.955,-0.855 2.932,-1.649 3.543,-2.84c0.397,-0.733 0.397,-1.161 0,-3.421c-0.244,-1.436 -0.733,-3.391 -1.038,-4.368c-0.794,-2.321 -1.65,-7.117 -2.199,-12.279c-0.153,-1.435 -0.367,-2.993 -0.458,-3.512c1.36,1.301 -8.38,-36.937 16.126,-58.348c2.403,-15.943 10.344,-26.213 19.828,-35.296c7.347,-7.038 18.968,-6.847 27.983,-5.963c1.558,0.152 7.198,-0.24 11.047,-0.362c2.941,-0.04 5.995,-0.435 9.224,-1.375c1.313,-0.641 9.866,-3.146 10.507,-3.42c1.833,-0.795 4.857,-1.589 8.552,-2.261c1.833,-0.336 4.337,-0.824 5.559,-1.099c1.588,-0.336 4.582,-0.519 10.08,-0.642c4.337,-0.091 8.552,-0.183 9.376,-0.244c2.994,-0.183 29.964,0.397 31.521,0.703c22.765,3.551 34.301,12.278 36.072,13.622c3.604,2.718 6.567,5.956 9.163,9.927c2.697,2.704 4.756,13.016 4.838,14.535c0.137,2.555 0.233,5.28 0.294,8.549c0.07,3.754 2.657,6.04 3.329,6.94c3.238,4.337 7.112,10.412 9.269,14.353c0.99,1.81 4.384,9.624 5.758,14.266c1.131,3.879 1.344,7.025 1.222,16.249c-0.183,10.202 -4.223,16.98 -6.363,18.755c-3.151,2.613 -4.514,2.644 -5.024,2.784c-1.95,0.535 -6.847,0.145 -7.336,0.145c-0.58,0 -0.733,16.771 -0.733,35.066c0,17.929 0,17.899 -1.344,23.977c-0.275,1.191 -0.489,2.505 -0.489,2.963c0,1.496 -1.283,5.834 -2.596,8.949c-0.733,1.68 -2.169,5.131 -3.176,7.636c-3.269,8.186 -4.185,10.354 -5.62,13.134c-0.764,1.527 -1.467,3.085 -1.589,3.512c-0.336,1.283 -2.046,4.979 -2.901,6.262c-1.253,1.893 -2.719,4.612 -3.391,6.292c-0.336,0.855 -1.038,2.168 -1.588,2.932c-1.771,2.474 -2.779,3.94 -4.856,6.994c-1.131,1.68 -3.146,4.124 -4.521,5.467c-1.344,1.344 -2.81,2.994 -3.268,3.666c-0.424,0.622 -6.017,8.094 -6.994,9.01c-0.978,0.916 -2.077,2.108 -2.444,2.596c-0.336,0.52 -1.1,1.405 -1.68,2.016c-2.81,2.993 -4.123,4.795 -4.704,5.193c-0.58,0.397 -2.962,2.535 -4.673,4.184c-8.063,7.728 -9.254,8.766 -11.728,10.11c-1.405,0.764 -3.421,1.619 -4.521,1.924c-2.963,0.855 -11.454,0.947 -20.647,0.275Z" style="fill-rule:nonzero;" />
    <g id="layer103">
        <path d="M149.044,279.834c-0.764,-0.153 -7.887,-1.014 -9.322,-1.472c-1.436,-0.458 -6.449,-2.183 -7.121,-2.641c-0.672,-0.458 -1.711,-1.038 -2.291,-1.313c-0.58,-0.275 -5.047,-3.012 -8.124,-5.773c-0.419,-0.375 -7.268,-6.416 -7.587,-6.704c-1.028,-0.926 -5.181,-6.063 -5.669,-6.552c-0.489,-0.489 -1.497,-1.741 -2.169,-2.81c-0.702,-1.069 -5.223,-6.628 -6.048,-7.85c-0.794,-1.221 -3.818,-4.612 -6.689,-7.544c-3.054,-3.115 -8.002,-10.523 -8.002,-10.629c0,-0.305 -1.955,-3.696 -2.474,-4.215c-0.519,-0.489 -8.858,-12.92 -10.354,-14.417c-1.13,-1.13 -3.177,-6.108 -3.085,-9.987c0.152,-7.575 0.03,-15.211 -0.275,-15.577c-0.153,-0.214 -0.367,-0.764 -0.428,-1.253c-0.061,-0.488 -0.366,-1.557 -0.641,-2.413c-0.275,-0.824 -0.764,-2.474 -1.069,-3.665c-0.306,-1.161 -0.764,-2.688 -1.039,-3.36c-0.244,-0.672 -0.458,-1.527 -0.488,-1.924c0,-0.397 -0.153,-1.008 -0.367,-1.374c-0.305,-0.581 -0.794,-4.093 -1.008,-7.087c-0.03,-0.488 -0.153,-1.13 -0.244,-1.374c-0.092,-0.244 -0.245,-1.833 -0.306,-3.513c-0.061,-1.679 -0.244,-3.298 -0.366,-3.604c-0.122,-0.305 -0.061,-0.702 0.122,-0.946c-0.523,-0.725 3.337,-14.359 5.131,-15.456c0.876,-1.631 1.466,-3.237 1.497,-3.604c0.061,-0.397 0.305,-1.069 0.58,-1.466c0.275,-0.427 0.55,-1.252 0.642,-1.863c0.061,-0.611 0.244,-1.252 0.366,-1.435c0.153,-0.184 0.275,-1.222 0.306,-2.322c0.091,-2.657 0.336,-4.154 0.855,-5.131c0.244,-0.458 0.428,-1.1 0.428,-1.436c0,-0.336 0.427,-1.435 0.916,-2.443c0.489,-1.008 0.916,-1.924 0.916,-2.047c0,-0.458 10.92,-18.672 14.473,-20.92c0.369,-0.233 7.892,-4.554 20.866,-4.136c8.073,0.26 0.13,-0.717 41.49,2.165c22.166,1.545 17.066,0.528 27.902,4.842c5.05,2.01 15.951,7.272 18.656,9.338c7.038,5.375 15.404,8.214 17.33,8.977c1.714,0.68 6.466,2.772 9.286,3.199c4.914,0.744 10.572,0.933 11.691,2.307l0.309,12.158l0.275,9.163c0.153,5.039 0.183,12.461 0.092,16.493c-0.123,4.032 -0.245,10.018 -0.275,13.287c-0.092,5.436 -0.336,7.605 -1.1,9.163c-0.122,0.244 -0.244,1.008 -0.305,1.649c-0.031,0.641 -0.183,1.436 -0.367,1.772c-0.152,0.305 -0.214,0.702 -0.122,0.885c0.122,0.153 0.031,0.489 -0.153,0.733c-0.183,0.245 -0.275,0.581 -0.183,0.733c0.122,0.153 0.061,0.367 -0.092,0.459c-0.122,0.091 -0.336,0.58 -0.427,1.099c-0.183,0.855 -0.794,2.352 -2.383,5.681c-0.305,0.703 -0.58,1.344 -0.58,1.436c0,0.091 -0.427,1.13 -0.947,2.26c-0.519,1.13 -1.13,2.505 -1.344,2.993c-0.244,0.519 -0.488,1.253 -0.611,1.68c-0.213,0.825 -0.702,2.047 -1.099,2.749c-0.55,0.947 -1.558,3.329 -3.39,7.941c-0.529,1.331 -1.558,3.153 -1.772,3.696c-0.257,0.654 -3.818,8.033 -5.376,10.324c-0.397,0.611 -1.619,2.598 -1.649,2.627c-0.489,0.488 -2.885,5.189 -4.106,6.716c-0.55,0.672 -2.125,2.569 -3.377,3.882c-1.173,1.23 -4.948,6.506 -6.078,7.544c-0.428,0.428 -2.23,2.81 -4.001,4.551c-1.772,1.741 -5.071,5.59 -7.056,7.545c-1.191,1.191 -2.23,2.29 -2.291,2.504c-0.336,0.917 -13.836,13.134 -14.141,13.501c-0.464,0.336 -0.567,0.442 -0.825,0.641c-0.127,0.098 -1.076,0.894 -2.197,1.416c-0.126,0.08 -1.817,1.003 -1.987,1.083c-0.951,0.45 -3.881,1.367 -5.244,1.52c-2.993,0.336 -14.019,-0.181 -15.485,-0.456Z" style="fill:#fff;fill-rule:nonzero;" />
        <path d="M57.769,200.034c-0.519,-0.275 -2.718,-0.672 -5.04,-0.947c-4.337,-0.458 -7.605,-1.466 -8.552,-2.596c-0.244,-0.305 -0.947,-0.794 -1.527,-1.099c-0.58,-0.275 -1.222,-0.856 -1.405,-1.253c-0.214,-0.397 -0.489,-0.794 -0.641,-0.916c-0.306,-0.214 -3.757,-6.964 -3.757,-7.361c0,-0.336 -1.741,-2.963 -2.077,-3.115c-0.367,-0.153 -2.505,-3.574 -2.505,-4.032c0,-0.214 -0.214,-0.58 -0.458,-0.794c-0.244,-0.214 -0.458,-0.581 -0.458,-0.794c0,-0.245 -0.122,-0.672 -0.275,-0.978c-0.489,-0.947 -0.947,-3.543 -0.886,-4.948c0.031,-1.038 -0.152,-1.68 -0.794,-2.718c-0.855,-1.344 -2.016,-4.215 -2.138,-5.376c-0.03,-0.336 -0.214,-0.886 -0.366,-1.222c-0.307,-0.243 -0.689,-6.26 -0.605,-9.772c0.067,-2.844 0.986,-12.169 1.857,-12.25c0.733,-1.13 3.176,-2.932 3.971,-2.932c0.427,0 0.855,-0.122 0.946,-0.275c0.184,-0.336 5.437,-0.366 5.743,-0.061c0.122,0.122 0.702,0.245 1.252,0.306c1.771,0.091 6.078,2.321 6.475,3.329c0.244,0.641 3.726,4.184 4.765,4.856c0.489,0.306 1.161,1.161 1.497,1.925c0.366,0.733 0.855,1.405 1.13,1.496c0.275,0.092 0.977,0.397 1.557,0.672c0.581,0.245 1.619,0.55 2.291,0.642c0.825,0.091 1.314,0.366 1.527,0.794c0.184,0.366 0.52,0.886 0.733,1.16c0.52,0.642 0.703,2.688 0.336,3.696c-0.305,0.794 0.092,2.383 0.794,3.207c0.245,0.306 0.398,1.161 0.367,2.291c-0.092,2.871 0.122,6.261 0.397,6.445c0.153,0.091 0.275,0.55 0.275,1.008c0,0.458 0.092,0.947 0.244,1.069c0.122,0.122 0.245,0.519 0.275,0.885c0.122,1.467 0.703,3.605 1.314,4.765c0.733,1.497 1.241,5.473 0.539,5.748c-0.261,0.116 0.219,1.845 0.223,1.898c0.092,0.947 1.435,0.879 0.804,2.37c-0.079,0.563 -0.172,1.623 -0.081,2.132c0.16,0.886 0.498,1.62 0.05,2.415c-0.187,1.145 -1.316,-0.701 -1.752,-0.978c-0.549,-0.214 -0.574,-0.995 -0.574,-1.208c0,-1.436 -3.058,-4.191 -5.165,-6.329c-1.375,-1.375 -2.291,-2.566 -2.291,-2.963c0,-0.947 -0.825,-2.749 -1.283,-2.749c-0.214,0 -0.855,-0.427 -1.436,-0.916c-0.549,-0.519 -1.282,-0.916 -1.557,-0.916c-1.497,0 -1.558,2.321 -0.153,4.551c0.519,0.855 0.886,1.924 0.977,3.054c0.153,1.344 0.397,1.985 1.253,3.024c0.947,1.16 3.604,2.871 4.245,2.779c0.896,-0.128 0.979,0.601 2.2,1.914c1.192,1.252 2.374,1.829 2.221,2.685c-0.122,0.702 1.757,0.821 2.154,1.249c1.528,1.588 2.192,4.507 0.634,6.339c-0.428,0.489 -0.828,0.978 -1.225,1.497c-0.763,1.13 -4.731,0 -6.045,-0.703Zm-15.455,-14.538c0.397,-1.07 -0.122,-1.68 -1.71,-1.955c-1.161,-0.214 -1.558,-0.458 -1.863,-1.13c-0.214,-0.459 -0.55,-0.825 -0.764,-0.825c-0.183,0 -0.855,-0.367 -1.497,-0.794c-0.641,-0.458 -1.252,-0.733 -1.344,-0.642c-0.427,0.397 1.405,2.627 2.2,2.658c0.488,0 1.954,1.649 1.954,2.229c0,1.192 2.597,1.589 3.024,0.459Zm12.676,-15.975c-0.031,-0.152 0.091,-0.641 0.244,-1.069c0.855,-2.107 0.886,-5.834 0.061,-6.75c-0.275,-0.305 -0.427,-0.58 -0.336,-0.58c0.122,0 -0.153,-0.489 -0.55,-1.1c-0.427,-0.611 -0.794,-1.344 -0.794,-1.619c-0.091,-1.313 -0.733,-2.718 -1.557,-3.421c-0.459,-0.427 -0.581,-0.824 -0.489,-1.679c0.122,-1.039 0,-1.283 -1.711,-2.994c-1.038,-1.038 -2.229,-2.046 -2.687,-2.29c-0.581,-0.306 -0.917,-0.764 -1.039,-1.467c-0.122,-0.702 -0.428,-1.13 -0.855,-1.313c-0.367,-0.122 -1.436,-1.038 -2.321,-2.046c-1.467,-1.558 -1.833,-1.802 -2.902,-1.863c-0.672,-0.031 -1.436,-0.153 -1.741,-0.245c-0.275,-0.091 -0.58,0 -0.703,0.183c-0.091,0.153 -0.977,0.306 -1.924,0.306c-4.978,0.03 -6.628,2.23 -6.75,9.071c-0.031,1.986 -0.183,3.727 -0.366,3.91c-0.336,0.336 -0.367,1.222 0,1.924c0.152,0.275 0.549,1.283 0.885,2.199c1.222,3.391 1.955,4.551 2.871,4.582c0.123,0 0.52,-0.703 0.886,-1.527c0.367,-0.856 0.825,-1.65 1.008,-1.772c0.703,-0.428 1.405,-1.894 1.405,-2.932c0,-0.611 0.275,-1.558 0.611,-2.169c0.336,-0.611 0.611,-1.313 0.611,-1.557c0,-0.275 0.886,-1.375 1.955,-2.444c1.954,-1.955 1.954,-1.955 3.604,-1.863c1.588,0.061 1.619,0.092 2.016,1.252c0.824,2.505 1.344,3.238 3.146,4.337c1.008,0.581 1.832,1.253 1.832,1.436c0.183,1.497 0.092,2.199 -0.397,2.963c-0.519,0.885 -2.291,2.168 -3.848,2.81c-0.458,0.183 -1.253,0.519 -1.802,0.733c-0.52,0.244 -1.253,0.427 -1.619,0.427c-0.825,0 -2.444,1.589 -2.444,2.413c0,0.336 -0.122,0.703 -0.305,0.794c-0.55,0.336 -0.306,1.589 0.427,2.322c0.52,0.488 1.192,0.733 2.139,0.794c1.343,0.092 1.466,0.03 2.046,-0.947c0.458,-0.825 0.825,-1.069 1.435,-1.069c0.459,0.031 1.375,-0.061 2.077,-0.183c1.192,-0.214 1.314,-0.153 2.413,1.038c0.642,0.672 1.253,1.161 1.375,1.1c0.122,-0.092 0.397,0.061 0.611,0.336c0.458,0.519 3.543,0.488 3.482,-0.031Z" style="fill:#fff;fill-rule:nonzero;" />
    </g>
</svg>